<svg width="40" height="40" viewBox="0 0 40 40" fill="none" xmlns="http://www.w3.org/2000/svg">
<circle cx="20" cy="20" r="19.5" stroke="#F7F7F7"/>
<path d="M18.035 19.1732L18.0716 20.1627C18.5829 20.1627 18.922 20.3169 19.1603 20.5225C19.4079 20.7362 19.5803 21.035 19.6964 21.3675C19.8121 21.699 19.8629 22.0385 19.8837 22.3008C19.8889 22.3672 19.8922 22.4278 19.8941 22.4809V22.7426C19.8941 23.5975 19.6735 24.1956 19.3707 24.6223C19.0651 25.0532 18.6521 25.3423 18.2194 25.5365C17.7851 25.7314 17.3438 25.8245 17.006 25.8679C16.8385 25.8894 16.6999 25.8983 16.605 25.9018C16.5576 25.9036 16.5214 25.904 16.4982 25.904L16.4735 25.9038L16.47 25.9037L16.4695 25.9037L16.4692 25.9037L16.469 25.9037L16.4688 25.9037L16.4621 25.9035H16.4541H12.8438H12.7377H10.5V14.5H12.7377H12.8438H16.4541C17.3479 14.5 18.0982 14.7467 18.6172 15.1967C19.1257 15.6376 19.4641 16.3177 19.4641 17.3024C19.4641 18.2401 19.0789 18.6754 18.7422 18.8978C18.5613 19.0174 18.3773 19.0855 18.2371 19.1233C18.1678 19.142 18.1115 19.1527 18.0749 19.1585C18.0567 19.1614 18.0437 19.163 18.0366 19.1638L18.0314 19.1643L18.0327 19.1642L18.0336 19.1642L18.0341 19.1641C18.0342 19.1641 18.0342 19.1641 18.035 19.1732ZM12.8438 15.7048H12.3438V16.2048V18.9725V19.4725H12.8438H16.2306C16.5601 19.4725 17.0113 19.424 17.3591 19.0662C17.6974 18.7181 17.8318 18.1861 17.8318 17.4951C17.8318 16.7242 17.5614 16.2369 17.1893 15.9632C17.0153 15.8353 16.8416 15.7714 16.7105 15.7393C16.6446 15.7231 16.5877 15.7146 16.5443 15.71C16.5225 15.7077 16.5038 15.7064 16.4887 15.7057L16.4687 15.7049L16.4608 15.7048L16.4574 15.7048L16.4558 15.7048L16.4551 15.7048C16.4547 15.7048 16.4544 15.7048 16.4544 16.2048V15.7048H15.9896H12.8438ZM16.2878 24.6994V24.6996L16.3017 24.6992C16.5903 24.6911 17.085 24.643 17.5137 24.33C17.9737 23.9943 18.2618 23.4278 18.2618 22.5879C18.2618 21.5792 17.8657 20.9848 17.379 20.6709C17.1512 20.5239 16.9261 20.4534 16.7596 20.419C16.6756 20.4017 16.604 20.393 16.5508 20.3887C16.5241 20.3865 16.5017 20.3854 16.4844 20.3849L16.4621 20.3844L16.4541 20.3844L16.4539 20.3844L16.4531 20.3844H12.8438H12.3438V20.8844V24.1994V24.6994H12.8438H16.2878Z" fill="#F7F7F7" stroke="#F7F7F7"/>
<path d="M23.481 15.7582V15.2307H27.5986V15.7582H23.481Z" fill="#F7F7F7" stroke="#F7F7F7"/>
<path d="M28.0832 21.3844H27.5895H23.5151H22.9405L23.0199 20.8154L23.5151 20.8844C23.0199 20.8154 23.0199 20.8151 23.02 20.8149L23.02 20.8143L23.0202 20.8131L23.0206 20.8101L23.0219 20.8021L23.0259 20.7778C23.0293 20.7581 23.0342 20.7315 23.0411 20.699C23.0548 20.6341 23.0763 20.5449 23.1086 20.4392C23.1729 20.2295 23.2829 19.9461 23.4669 19.6588C23.8452 19.0682 24.5356 18.4726 25.6977 18.4726L28.0832 21.3844ZM28.0832 21.3844L28.0895 20.8908L27.5895 20.8844M28.0832 21.3844L27.5895 20.8844M27.5895 20.8844C28.0895 20.8908 28.0895 20.8905 28.0895 20.8903M27.5895 20.8844L28.0895 20.8903M28.0895 20.8903L28.0895 20.8897M28.0895 20.8903L28.0895 20.8897M28.0895 20.8897L28.0895 20.8885M28.0895 20.8897L28.0895 20.8885M28.0895 20.8885L28.0895 20.8854M28.0895 20.8885L28.0895 20.8854M28.0895 20.8854L28.0896 20.8772M28.0895 20.8854L28.0896 20.8772M28.0896 20.8772L28.0892 20.8526M28.0896 20.8772L28.0892 20.8526M28.0892 20.8526C28.0888 20.8327 28.0879 20.8058 28.086 20.7729M28.0892 20.8526L28.086 20.7729M28.086 20.7729C28.0821 20.7073 28.0741 20.6168 28.0576 20.5094M28.086 20.7729L28.0576 20.5094M28.0576 20.5094C28.0248 20.2972 27.9567 20.0063 27.8115 19.709M28.0576 20.5094L27.8115 19.709M27.8115 19.709C27.6653 19.4097 27.4363 19.0948 27.0803 18.856M27.8115 19.709L27.0803 18.856M27.0803 18.856C26.7213 18.6151 26.264 18.4725 25.6977 18.4726L27.0803 18.856ZM29.4981 21.7111C29.5011 21.8322 29.5006 21.9428 29.4983 22.0399H23.5397H23.0397V22.5399C23.0397 23.1976 23.1965 23.72 23.4633 24.1246C23.7292 24.528 24.0822 24.781 24.4217 24.9375C24.758 25.0925 25.0872 25.1562 25.3271 25.1824C25.4484 25.1956 25.5505 25.1996 25.6243 25.2003C25.6613 25.2006 25.6915 25.2001 25.7137 25.1994L25.7346 25.1985C26.8731 25.1958 27.5399 24.8189 27.8959 24.323C28.0099 24.1643 28.0828 24.0054 28.1292 23.8643H29.359C29.2833 24.379 29.0912 24.7615 28.8473 25.0527C28.5233 25.4397 28.0787 25.6997 27.6023 25.8712C27.1264 26.0425 26.6425 26.1169 26.2719 26.1472C26.088 26.1623 25.9356 26.1663 25.8307 26.1665C25.7783 26.1666 25.738 26.1658 25.7118 26.1651L25.6835 26.1641L25.678 26.1638L25.6778 26.1638L25.6777 26.1638L25.6774 26.1638L25.6772 26.1638L25.6638 26.163H25.6495C24.4562 26.163 23.62 25.8862 23.0283 25.5026C22.4359 25.1184 22.0554 24.6054 21.8096 24.0802C21.5622 23.5516 21.4541 23.0161 21.4091 22.6075C21.3868 22.4045 21.3804 22.2365 21.3795 22.1212C21.3791 22.0637 21.38 22.0196 21.3809 21.9912C21.3814 21.977 21.3819 21.9667 21.3822 21.9607L21.3825 21.9553L21.3825 21.9549L21.3825 21.9549L21.3825 21.9545L21.3836 21.9383L21.3836 21.9217L21.3836 21.9214L21.3837 21.9153C21.3838 21.9091 21.384 21.8986 21.3845 21.8841C21.3854 21.8551 21.3874 21.8102 21.3915 21.7518C21.3998 21.6348 21.4166 21.4644 21.4508 21.2586C21.5195 20.8447 21.6562 20.3004 21.9251 19.7622C22.193 19.2259 22.5872 18.7049 23.1697 18.3167C23.749 17.9307 24.5442 17.6561 25.6493 17.6561C26.8103 17.6561 27.5937 17.9653 28.1322 18.3899C28.6758 18.8186 29.0123 19.3985 29.2165 20.0071C29.4214 20.6174 29.4863 21.237 29.4981 21.7111ZM24.01 20.9559C24.0099 20.9563 24.0099 20.9563 24.01 20.9558L24.01 20.9559Z" fill="#F7F7F7" stroke="#F7F7F7"/>
</svg>
