<svg width="40" height="40" viewBox="0 0 40 40" fill="none" xmlns="http://www.w3.org/2000/svg">
<circle cx="20" cy="20" r="19.5" stroke="#F7F7F7"/>
<path d="M17.1043 30.7543C17.0713 31.787 24.3508 31.787 24.3238 30.7543C24.3238 30.2756 24.342 28.6996 24.342 26.7451C24.342 25.382 23.8761 24.4902 23.3538 24.0389C26.5968 23.6767 30 22.441 30 16.8267C30 15.2306 29.4377 13.9258 28.504 12.903C28.6533 12.5335 29.1519 11.0485 28.3585 9.03572C28.3585 9.03572 27.1373 8.64263 24.3583 10.5335C23.1954 10.2077 21.9488 10.0476 20.7131 10.0403C19.4738 10.0458 18.229 10.2077 17.0679 10.5317C14.2871 8.64081 13.0641 9.0339 13.0641 9.0339C12.2725 11.0449 12.7711 12.5317 12.9222 12.9012C11.9904 13.9239 11.4226 15.2288 11.4226 16.8248C11.4226 22.4246 14.8221 23.6785 18.0542 24.048C17.6375 24.4138 17.2608 25.058 17.1297 26.0025C16.2999 26.3774 14.1906 27.0217 12.8912 24.7887C12.8912 24.7887 12.1232 23.3855 10.6619 23.2818C10.6619 23.2818 9.24053 23.2636 10.5636 24.1699C10.5636 24.1699 11.519 24.6194 12.1796 26.3083C12.1796 26.3083 13.035 29.1509 17.0842 28.2683C17.0915 29.4876 17.1043 30.4067 17.1043 30.7543Z" fill="#F7F7F7"/>
</svg>
