<svg width="40" height="40" viewBox="0 0 40 40" fill="none" xmlns="http://www.w3.org/2000/svg">
<circle cx="20" cy="20" r="19.5" stroke="#F7F7F7"/>
<g clip-path="url(#clip0)">
<path d="M29.9445 15.8464C29.8976 14.7839 29.7258 14.0534 29.4797 13.4205C29.2258 12.7486 28.8351 12.1471 28.3233 11.647C27.8233 11.1392 27.2178 10.7446 26.5537 10.4946C25.9171 10.2485 25.1904 10.0767 24.1279 10.0298C23.0575 9.97903 22.7177 9.96729 20.0028 9.96729C17.2878 9.96729 16.948 9.97903 15.8815 10.0259C14.819 10.0727 14.0886 10.2447 13.4558 10.4907C12.7837 10.7446 12.1822 11.1352 11.6822 11.647C11.1744 12.1471 10.7799 12.7526 10.5298 13.4166C10.2837 14.0534 10.1119 14.7799 10.065 15.8424C10.0142 16.9128 10.0024 17.2527 10.0024 19.9676C10.0024 22.6825 10.0142 23.0224 10.061 24.0888C10.1079 25.1513 10.2799 25.8818 10.526 26.5147C10.7799 27.1866 11.1744 27.7881 11.6822 28.2882C12.1822 28.796 12.7877 29.1906 13.4518 29.4406C14.0886 29.6867 14.8151 29.8585 15.8777 29.9054C16.944 29.9524 17.284 29.9639 19.9989 29.9639C22.7139 29.9639 23.0537 29.9524 24.1202 29.9054C25.1827 29.8585 25.9131 29.6867 26.5459 29.4406C27.8898 28.921 28.9523 27.8585 29.4719 26.5147C29.7179 25.878 29.8898 25.1513 29.9367 24.0888C29.9835 23.0224 29.9953 22.6825 29.9953 19.9676C29.9953 17.2527 29.9913 16.9128 29.9445 15.8464ZM28.1437 24.0107C28.1007 24.9873 27.9367 25.5146 27.7999 25.8662C27.4639 26.7374 26.7725 27.4288 25.9014 27.7648C25.5498 27.9015 25.0186 28.0655 24.0458 28.1084C22.9911 28.1554 22.6748 28.167 20.0067 28.167C17.3386 28.167 17.0183 28.1554 15.9674 28.1084C14.9908 28.0655 14.4635 27.9015 14.1119 27.7648C13.6784 27.6046 13.2838 27.3506 12.9635 27.0186C12.6315 26.6943 12.3775 26.3037 12.2173 25.8702C12.0806 25.5186 11.9166 24.9873 11.8737 24.0147C11.8267 22.9599 11.8151 22.6435 11.8151 19.9754C11.8151 17.3073 11.8267 16.987 11.8737 15.9363C11.9166 14.9597 12.0806 14.4323 12.2173 14.0807C12.3775 13.6471 12.6315 13.2526 12.9675 12.9322C13.2916 12.6001 13.6822 12.3462 14.1159 12.1861C14.4675 12.0494 14.9988 11.8854 15.9714 11.8423C17.0261 11.7955 17.3426 11.7837 20.0105 11.7837C22.6826 11.7837 22.9989 11.7955 24.0498 11.8423C25.0264 11.8854 25.5538 12.0494 25.9053 12.1861C26.3389 12.3462 26.7335 12.6001 27.0538 12.9322C27.3858 13.2564 27.6397 13.6471 27.7999 14.0807C27.9367 14.4323 28.1007 14.9635 28.1437 15.9363C28.1906 16.991 28.2023 17.3073 28.2023 19.9754C28.2023 22.6435 28.1906 22.956 28.1437 24.0107Z" fill="white"/>
<path d="M20.0026 14.8308C17.1667 14.8308 14.8657 17.1316 14.8657 19.9677C14.8657 22.8038 17.1667 25.1046 20.0026 25.1046C22.8387 25.1046 25.1395 22.8038 25.1395 19.9677C25.1395 17.1316 22.8387 14.8308 20.0026 14.8308ZM20.0026 23.2999C18.1628 23.2999 16.6704 21.8077 16.6704 19.9677C16.6704 18.1277 18.1628 16.6355 20.0026 16.6355C21.8426 16.6355 23.3348 18.1277 23.3348 19.9677C23.3348 21.8077 21.8426 23.2999 20.0026 23.2999V23.2999Z" fill="white"/>
<path d="M26.5417 14.6277C26.5417 15.2899 26.0047 15.8269 25.3423 15.8269C24.68 15.8269 24.1431 15.2899 24.1431 14.6277C24.1431 13.9653 24.68 13.4285 25.3423 13.4285C26.0047 13.4285 26.5417 13.9653 26.5417 14.6277V14.6277Z" fill="white"/>
</g>
<defs>
<clipPath id="clip0">
<rect width="19.9967" height="19.9967" fill="white" transform="translate(9.96729 9.96729)"/>
</clipPath>
</defs>
</svg>
