<svg width="40" height="40" viewBox="0 0 40 40" fill="none" xmlns="http://www.w3.org/2000/svg">
<circle cx="20" cy="20" r="19.5" stroke="#F7F7F7"/>
<path d="M14.4725 16.25H10V30H14.4725V16.25Z" fill="#F7F7F7"/>
<path d="M26.655 16.4113C26.6075 16.3963 26.5625 16.38 26.5125 16.3662C26.4525 16.3525 26.3925 16.3413 26.3312 16.3313C26.0937 16.2838 25.8338 16.25 25.5288 16.25C22.9213 16.25 21.2675 18.1463 20.7225 18.8788V16.25H16.25V30H20.7225V22.5C20.7225 22.5 24.1025 17.7925 25.5288 21.25C25.5288 24.3363 25.5288 30 25.5288 30H30V20.7212C30 18.6437 28.5763 16.9125 26.655 16.4113Z" fill="#F7F7F7"/>
<path d="M12.1875 14.375C13.3956 14.375 14.375 13.3956 14.375 12.1875C14.375 10.9794 13.3956 10 12.1875 10C10.9794 10 10 10.9794 10 12.1875C10 13.3956 10.9794 14.375 12.1875 14.375Z" fill="#F7F7F7"/>
</svg>
