<svg width="218" height="183" viewBox="0 0 218 183" fill="none" xmlns="http://www.w3.org/2000/svg">
<mask id="mask0" mask-type="alpha" maskUnits="userSpaceOnUse" x="2" y="25" width="211" height="137">
<path d="M42.298 63.3346V106.056C42.298 108.813 41.8386 111.339 40.9198 113.636C40.0585 115.876 38.7665 117.799 37.0439 119.407C35.3212 120.957 33.2253 122.192 30.7562 123.111C28.3444 123.972 25.5882 124.403 22.4874 124.403C19.5015 124.403 16.8601 124.001 14.5632 123.197C12.3237 122.393 10.3714 121.245 8.70615 119.752C7.09834 118.259 5.77764 116.479 4.74404 114.411C3.71045 112.344 2.99267 110.047 2.59072 107.521L14.8216 105.109C15.7978 110.334 18.2956 112.947 22.3151 112.947C24.2101 112.947 25.8179 112.344 27.1386 111.138C28.5167 109.932 29.2058 108.038 29.2058 105.454V73.8428H10.9456V63.3346H42.298ZM76.1993 63.3346V100.199C76.1993 104.449 77.0319 107.636 78.6971 109.76C80.3624 111.827 83.1473 112.861 87.052 112.861C90.9567 112.861 93.7417 111.827 95.4069 109.76C97.0721 107.636 97.9048 104.449 97.9048 100.199V63.3346H110.652V98.8213C110.652 103.243 110.222 107.09 109.36 110.363C108.557 113.579 107.207 116.249 105.312 118.373C103.417 120.441 100.977 121.991 97.9909 123.025C95.005 124.001 91.3587 124.489 87.052 124.489C82.7454 124.489 79.0991 124.001 76.1132 123.025C73.1272 121.991 70.6868 120.441 68.7919 118.373C66.8969 116.249 65.5188 113.579 64.6575 110.363C63.8536 107.09 63.4516 103.243 63.4516 98.8213V63.3346H76.1993ZM132.215 123.455V63.3346H145.307V111.827H168.218V123.455H132.215ZM184.176 123.455V113.033H191.928V73.7567H184.176V63.3346H212.772V73.7567H205.02V113.033H212.772V123.455H184.176Z" fill="url(#paint0_linear)"/>
<path d="M22.0713 48.0094V30.3035H199.131V48.0094" stroke="#E1DDE2" stroke-width="10.1177"/>
<path d="M198.644 139.068V156.774H21.5842V139.068" stroke="#857AAF" stroke-width="10.1177"/>
</mask>
<g mask="url(#mask0)">
<rect x="-23.332" y="-13.0884" width="293.27" height="216.96" fill="#F3F3F3"/>
</g>
<defs>
<linearGradient id="paint0_linear" x1="108.743" y1="0.455322" x2="108.743" y2="182.411" gradientUnits="userSpaceOnUse">
<stop stop-color="#E4DFE3"/>
<stop offset="1" stop-color="#8A7EAE"/>
</linearGradient>
</defs>
</svg>
