<svg width="183" height="57" viewBox="0 0 183 57" fill="none" xmlns="http://www.w3.org/2000/svg">
<path d="M81.6563 38.7922C80.1621 38.7922 78.9112 38.5142 77.9034 37.9583C76.9131 37.3849 76.0617 36.6291 75.3494 35.6909L76.5221 34.7266C77.165 35.5779 77.886 36.2382 78.6853 36.7073C79.5019 37.1764 80.5096 37.411 81.7085 37.411C83.1158 37.411 84.193 37.0808 84.9401 36.4206C85.7046 35.743 86.0869 34.8048 86.0869 33.6059C86.0869 32.4939 85.7654 31.6773 85.1226 31.1561C84.4797 30.6349 83.5762 30.2526 82.4121 30.0094L80.7963 29.6706C79.0588 29.3231 77.7992 28.741 77.0173 27.9244C76.2355 27.1078 75.8445 26.0653 75.8445 24.797C75.8445 23.9978 75.9835 23.3028 76.2615 22.7121C76.5395 22.1039 76.9304 21.6001 77.4343 21.2005C77.9555 20.8008 78.5723 20.4968 79.2847 20.2883C80.0144 20.0798 80.8137 19.9756 81.6824 19.9756C83.0376 19.9756 84.1843 20.2188 85.1226 20.7053C86.0608 21.1918 86.834 21.8781 87.4421 22.7642L86.2693 23.6242C85.7654 22.8945 85.1313 22.3385 84.3668 21.9563C83.6197 21.5566 82.6988 21.3568 81.6042 21.3568C80.3011 21.3568 79.2673 21.6435 78.5028 22.2169C77.7557 22.7729 77.3822 23.6155 77.3822 24.7449C77.3822 25.8221 77.721 26.6126 78.3986 27.1165C79.0762 27.6204 79.9797 27.9852 81.109 28.2111L82.7249 28.5499C84.5318 28.9495 85.8002 29.5663 86.5299 30.4003C87.2596 31.2343 87.6245 32.2768 87.6245 33.5277C87.6245 35.1957 87.0946 36.4901 86.0347 37.411C84.9749 38.3318 83.5154 38.7922 81.6563 38.7922ZM103.036 38.4795L101.056 32.8241H93.3154L91.3347 38.4795H89.7709L96.2082 20.2883H98.215L104.678 38.4795H103.036ZM97.2246 21.7738H97.1204L93.7063 31.4688H100.639L97.2246 21.7738ZM107.936 38.4795V20.2883H109.5V37.0982H117.527V38.4795H107.936ZM132.84 38.4795L130.859 32.8241H123.119L121.138 38.4795H119.574L126.011 20.2883H128.018L134.482 38.4795H132.84ZM127.028 21.7738H126.924L123.509 31.4688H130.442L127.028 21.7738ZM149.154 38.4795H136.123V37.0461L147.043 21.6696H136.697V20.2883H148.737V21.7217L137.791 37.0982H149.154V38.4795ZM163.992 38.4795L162.011 32.8241H154.271L152.29 38.4795H150.726L157.164 20.2883H159.17L165.634 38.4795H163.992ZM158.18 21.7738H158.076L154.662 31.4688H161.594L158.18 21.7738ZM170.455 38.4795H168.891V20.2883H176.032C177.596 20.2883 178.795 20.7314 179.629 21.6175C180.48 22.5036 180.906 23.7458 180.906 25.3443C180.906 26.7516 180.558 27.8897 179.863 28.7584C179.186 29.6271 178.195 30.1484 176.892 30.3221L181.375 38.4795H179.629L175.277 30.4264H170.455V38.4795ZM176.032 29.0972C177.075 29.0972 177.865 28.8105 178.404 28.2372C178.96 27.6464 179.238 26.8993 179.238 25.9959V24.7449C179.238 23.8588 178.96 23.129 178.404 22.5557C177.865 21.9649 177.075 21.6696 176.032 21.6696H170.455V29.0972H176.032Z" fill="#EFEFEF"/>
<mask id="mask0" mask-type="alpha" maskUnits="userSpaceOnUse" x="1" y="8" width="65" height="42">
<path d="M13.3618 20.0065V33.0968C13.3618 33.9413 13.221 34.7155 12.9395 35.4193C12.6756 36.1055 12.2797 36.6949 11.7519 37.1875C11.2241 37.6626 10.5819 38.0409 9.82529 38.3224C9.08632 38.5863 8.24178 38.7183 7.29168 38.7183C6.37676 38.7183 5.56742 38.5951 4.86364 38.3488C4.17745 38.1024 3.57924 37.7506 3.069 37.2931C2.57635 36.8356 2.17168 36.2902 1.85497 35.6568C1.53827 35.0234 1.31834 34.3196 1.19518 33.5455L4.94281 32.8065C5.24192 34.4076 6.00728 35.2082 7.2389 35.2082C7.81952 35.2082 8.31216 35.0234 8.71684 34.6539C9.1391 34.2844 9.35024 33.7038 9.35024 32.9121V23.2263H3.75518V20.0065H13.3618ZM23.7494 20.0065V31.3022C23.7494 32.6042 24.0045 33.5807 24.5148 34.2317C25.025 34.8651 25.8784 35.1818 27.0748 35.1818C28.2712 35.1818 29.1246 34.8651 29.6348 34.2317C30.145 33.5807 30.4002 32.6042 30.4002 31.3022V20.0065H34.3061V30.8799C34.3061 32.2347 34.1742 33.4135 33.9103 34.4164C33.6639 35.4017 33.2505 36.2198 32.6698 36.8708C32.0892 37.5042 31.3415 37.9793 30.4265 38.296C29.5116 38.5951 28.3944 38.7446 27.0748 38.7446C25.7552 38.7446 24.6379 38.5951 23.723 38.296C22.8081 37.9793 22.0604 37.5042 21.4797 36.8708C20.8991 36.2198 20.4768 35.4017 20.2129 34.4164C19.9666 33.4135 19.8434 32.2347 19.8434 30.8799V20.0065H23.7494ZM40.9129 38.4279V20.0065H44.9245V34.8651H51.9447V38.4279H40.9129ZM56.8344 38.4279V35.2345H59.2097V23.1999H56.8344V20.0065H65.5965V23.1999H63.2212V35.2345H65.5965V38.4279H56.8344Z" fill="url(#paint0_linear)"/>
<path d="M7.16455 14.9989V9.57364H61.4169V14.9989" stroke="#E1DDE2" stroke-width="3.10013"/>
<path d="M61.2671 42.9001V48.3253H7.01472V42.9001" stroke="#857AAF" stroke-width="3.10013"/>
</mask>
<g mask="url(#mask0)">
<rect x="-6.74707" y="-3.72202" width="89.8603" height="66.4782" fill="#EFEFEF"/>
</g>
<defs>
<linearGradient id="paint0_linear" x1="33.721" y1="0.427948" x2="33.721" y2="56.1806" gradientUnits="userSpaceOnUse">
<stop stop-color="#E4DFE3"/>
<stop offset="1" stop-color="#8A7EAE"/>
</linearGradient>
</defs>
</svg>
