<svg width="100" height="100" viewBox="0 0 100 100" fill="none" xmlns="http://www.w3.org/2000/svg">
<circle cx="50" cy="50" r="50" fill="#FEFEFE"/>
<mask id="mask0" mask-type="alpha" maskUnits="userSpaceOnUse" x="21" y="23" width="57" height="56">
<path d="M45.9149 38.6595V55.9559C45.9149 57.0718 45.7289 58.0947 45.357 59.0246C45.0083 59.9313 44.4852 60.7101 43.7877 61.361C43.0903 61.9887 42.2418 62.4885 41.2421 62.8605C40.2657 63.2092 39.1498 63.3836 37.8944 63.3836C36.6855 63.3836 35.6161 63.2209 34.6862 62.8954C33.7795 62.5699 32.9891 62.105 32.3149 61.5005C31.664 60.8961 31.1293 60.1754 30.7108 59.3385C30.2924 58.5015 30.0018 57.5716 29.839 56.5487L34.7908 55.5723C35.186 57.6879 36.1973 58.7456 37.8247 58.7456C38.5919 58.7456 39.2428 58.5015 39.7775 58.0133C40.3354 57.5251 40.6144 56.7579 40.6144 55.7118V42.9138H33.2216V38.6595H45.9149ZM57.9664 63.4185C55.8276 63.4185 54.0143 63.0581 52.5264 62.3374C51.0385 61.5935 49.7715 60.6403 48.7254 59.4779L52.2126 55.9559C53.8632 57.8157 55.8973 58.7456 58.3151 58.7456C59.617 58.7456 60.5818 58.4783 61.2095 57.9436C61.8372 57.4089 62.151 56.6998 62.151 55.8164C62.151 55.1422 61.965 54.5843 61.5931 54.1426C61.2211 53.6776 60.4655 53.3638 59.3264 53.201L56.9202 52.8872C54.3397 52.5617 52.445 51.7829 51.2361 50.5508C50.0505 49.3186 49.4577 47.6797 49.4577 45.6338C49.4577 44.5412 49.6669 43.5415 50.0854 42.6349C50.5038 41.7282 51.0967 40.9494 51.8638 40.2985C52.6543 39.6475 53.6074 39.1477 54.7233 38.799C55.8625 38.427 57.1527 38.241 58.5941 38.241C60.4307 38.241 62.0464 38.5316 63.4413 39.1128C64.8361 39.694 66.0334 40.5426 67.0331 41.6585L63.511 45.2154C62.9298 44.5412 62.2208 43.9949 61.3838 43.5764C60.5702 43.1347 59.5356 42.9138 58.2802 42.9138C57.0946 42.9138 56.2112 43.1231 55.63 43.5415C55.0488 43.96 54.7582 44.5412 54.7582 45.2851C54.7582 46.122 54.9791 46.7265 55.4208 47.0985C55.8857 47.4704 56.6297 47.7378 57.6526 47.9005L60.0587 48.2841C62.5695 48.6793 64.4293 49.4581 65.6382 50.6205C66.8471 51.7597 67.4515 53.387 67.4515 55.5026C67.4515 56.665 67.2423 57.7344 66.8238 58.7108C66.4054 59.6872 65.7893 60.5241 64.9756 61.2215C64.1852 61.919 63.1972 62.4653 62.0115 62.8605C60.8259 63.2325 59.4775 63.4185 57.9664 63.4185Z" fill="url(#paint0_linear)"/>
<path d="M24 32.1794V25.2051H75V32.1794" stroke="#E1DDE2" stroke-width="4.09625"/>
<path d="M75 69.2307V76.2051H24V69.2307" stroke="#857AAF" stroke-width="4.09625"/>
</mask>
<g mask="url(#mask0)">
<rect x="-4.62573" y="7.5166" width="118.734" height="87.8386" fill="url(#paint1_linear)"/>
</g>
<defs>
<linearGradient id="paint0_linear" x1="49.0642" y1="13" x2="49.0642" y2="86.6667" gradientUnits="userSpaceOnUse">
<stop stop-color="#E4DFE3"/>
<stop offset="1" stop-color="#8A7EAE"/>
</linearGradient>
<linearGradient id="paint1_linear" x1="54.741" y1="119.754" x2="54.741" y2="16.6033" gradientUnits="userSpaceOnUse">
<stop stop-color="#3E0A9B"/>
<stop offset="1" stop-color="#72C5E4"/>
</linearGradient>
</defs>
</svg>
