<svg width="30" height="25" viewBox="0 0 30 25" fill="none" xmlns="http://www.w3.org/2000/svg">
<path d="M13.5281 11.9977C14.3114 12.5632 15.6859 12.5632 16.4694 11.9976C16.4695 11.9976 16.4697 11.9974 16.4698 11.9974L29.8214 2.35939C29.3835 0.987964 28.1797 0 26.7662 0H3.23106C1.81747 0 0.613773 0.987964 0.175781 2.35939L13.5276 11.9974C13.5278 11.9976 13.5279 11.9976 13.5281 11.9977Z" fill="white"/>
<path d="M17.4462 13.5811C17.446 13.5813 17.4459 13.5814 17.4458 13.5814C16.7601 14.0764 15.8799 14.3239 15 14.3239C14.1199 14.3239 13.2401 14.0764 12.5543 13.5814C12.5542 13.5813 12.5542 13.5813 12.554 13.5812L0 4.51904V20.8289C0 22.7588 1.45003 24.3288 3.23241 24.3288H26.7677C28.55 24.3288 30 22.7588 30 20.8289V4.51904L17.4462 13.5811Z" fill="white"/>
</svg>
