<svg width="30" height="34" viewBox="0 0 30 34" fill="none" xmlns="http://www.w3.org/2000/svg">
<path d="M29.1842 24.2946L24.9976 19.6749C23.5024 18.025 20.9606 18.685 20.3625 20.8298C19.9139 22.3148 18.4187 23.1397 17.073 22.8097C14.0826 21.9847 10.0455 17.695 9.29791 14.2303C8.84934 12.7453 9.74647 11.0954 11.0922 10.6005C13.0359 9.94057 13.634 7.13576 12.1388 5.48588L7.95222 0.866191C6.75605 -0.28873 4.9618 -0.28873 3.91515 0.866191L1.07425 4.00098C-1.76665 7.30075 1.37329 16.0452 8.40078 23.7996C15.4283 31.5541 23.3529 35.1839 26.3433 31.8841L29.1842 28.7493C30.2309 27.4294 30.2309 25.4495 29.1842 24.2946Z" fill="white"/>
</svg>
